<svg width="11" height="12" viewBox="0 0 11 12" fill="none" xmlns="http://www.w3.org/2000/svg">
<path d="M8.87724 4.70969C8.87724 4.70969 8.60574 8.07719 8.44824 9.49569C8.37324 10.1732 7.95474 10.5702 7.26924 10.5827C5.96474 10.6062 4.65874 10.6077 3.35474 10.5802C2.69524 10.5667 2.28374 10.1647 2.21024 9.49919C2.05174 8.06819 1.78174 4.70969 1.78174 4.70969" stroke="#FF8244" stroke-linecap="round" stroke-linejoin="round"/>
<path d="M9.56884 3.09544H1.08984" stroke="#FF8244" stroke-linecap="round" stroke-linejoin="round"/>
<path d="M7.93513 3.09544C7.54263 3.09544 7.20463 2.81794 7.12763 2.43344L7.00613 1.82544C6.93113 1.54494 6.67713 1.35094 6.38763 1.35094H4.27113C3.98163 1.35094 3.72763 1.54494 3.65263 1.82544L3.53113 2.43344C3.45413 2.81794 3.11613 3.09544 2.72363 3.09544" stroke="#FF8244" stroke-linecap="round" stroke-linejoin="round"/>
</svg>
